<mxfile host="app.diagrams.net" modified="2024-05-21T16:17:26.671Z" agent="Mozilla/5.0 (Windows NT 10.0; Win64; x64) AppleWebKit/537.36 (KHTML, like Gecko) Chrome/125.0.0.0 Safari/537.36" etag="Ngh0s26cOykXuxCiR77j" version="24.4.4" type="github">
  <diagram id="R2lEEEUBdFMjLlhIrx00" name="Page-1">
    <mxGraphModel dx="794" dy="462" grid="1" gridSize="10" guides="1" tooltips="1" connect="1" arrows="1" fold="1" page="1" pageScale="1" pageWidth="850" pageHeight="1100" math="0" shadow="0" extFonts="Permanent Marker^https://fonts.googleapis.com/css?family=Permanent+Marker">
      <root>
        <mxCell id="0" />
        <mxCell id="1" parent="0" />
        <mxCell id="8UbPj4sn8m6KC2orrcHc-1" value="" style="whiteSpace=wrap;html=1;aspect=fixed;" vertex="1" parent="1">
          <mxGeometry x="310" y="650" width="80" height="80" as="geometry" />
        </mxCell>
        <mxCell id="8UbPj4sn8m6KC2orrcHc-20" value="Connexion" style="ellipse;whiteSpace=wrap;html=1;" vertex="1" parent="1">
          <mxGeometry x="120" y="480" width="90" height="60" as="geometry" />
        </mxCell>
        <mxCell id="8UbPj4sn8m6KC2orrcHc-21" value="Actor" style="shape=umlActor;verticalLabelPosition=bottom;verticalAlign=top;html=1;outlineConnect=0;" vertex="1" parent="1">
          <mxGeometry x="60" y="440" width="30" height="60" as="geometry" />
        </mxCell>
        <mxCell id="8UbPj4sn8m6KC2orrcHc-22" value="Actor" style="shape=umlActor;verticalLabelPosition=bottom;verticalAlign=top;html=1;outlineConnect=0;" vertex="1" parent="1">
          <mxGeometry x="60" y="535" width="30" height="60" as="geometry" />
        </mxCell>
        <mxCell id="8UbPj4sn8m6KC2orrcHc-23" value="Stripe&lt;div&gt;&lt;br&gt;&lt;/div&gt;" style="shape=umlActor;verticalLabelPosition=bottom;verticalAlign=top;html=1;outlineConnect=0;" vertex="1" parent="1">
          <mxGeometry x="610" y="290" width="30" height="60" as="geometry" />
        </mxCell>
        <mxCell id="8UbPj4sn8m6KC2orrcHc-24" value="Twilio" style="shape=umlActor;verticalLabelPosition=bottom;verticalAlign=top;html=1;outlineConnect=0;" vertex="1" parent="1">
          <mxGeometry x="610" y="480" width="30" height="60" as="geometry" />
        </mxCell>
        <mxCell id="8UbPj4sn8m6KC2orrcHc-25" value="OAuth" style="shape=umlActor;verticalLabelPosition=bottom;verticalAlign=top;html=1;outlineConnect=0;" vertex="1" parent="1">
          <mxGeometry x="610" y="380" width="30" height="60" as="geometry" />
        </mxCell>
        <mxCell id="8UbPj4sn8m6KC2orrcHc-27" value="Compagnie de location&lt;div&gt;&lt;br&gt;&lt;/div&gt;" style="shape=umlActor;verticalLabelPosition=bottom;verticalAlign=top;html=1;outlineConnect=0;" vertex="1" parent="1">
          <mxGeometry x="610" y="580" width="30" height="60" as="geometry" />
        </mxCell>
        <mxCell id="8UbPj4sn8m6KC2orrcHc-28" value="" style="ellipse;whiteSpace=wrap;html=1;" vertex="1" parent="1">
          <mxGeometry x="500" y="690" width="90" height="60" as="geometry" />
        </mxCell>
        <mxCell id="8UbPj4sn8m6KC2orrcHc-29" value="Admissibilité" style="text;html=1;align=center;verticalAlign=middle;whiteSpace=wrap;rounded=0;" vertex="1" parent="1">
          <mxGeometry x="320" y="360" width="60" height="30" as="geometry" />
        </mxCell>
        <mxCell id="8UbPj4sn8m6KC2orrcHc-30" value="Authentification" style="text;html=1;align=center;verticalAlign=middle;whiteSpace=wrap;rounded=0;" vertex="1" parent="1">
          <mxGeometry x="210" y="350" width="60" height="30" as="geometry" />
        </mxCell>
        <mxCell id="8UbPj4sn8m6KC2orrcHc-31" value="Support Client" style="text;html=1;align=center;verticalAlign=middle;whiteSpace=wrap;rounded=0;" vertex="1" parent="1">
          <mxGeometry x="480" y="500" width="60" height="30" as="geometry" />
        </mxCell>
        <mxCell id="8UbPj4sn8m6KC2orrcHc-32" value="Communiquer avec le client" style="text;html=1;align=center;verticalAlign=middle;whiteSpace=wrap;rounded=0;" vertex="1" parent="1">
          <mxGeometry x="395" y="580" width="70" height="30" as="geometry" />
        </mxCell>
        <mxCell id="8UbPj4sn8m6KC2orrcHc-34" value="Communiquer avec le propriétaire" style="text;html=1;align=center;verticalAlign=middle;whiteSpace=wrap;rounded=0;" vertex="1" parent="1">
          <mxGeometry x="395" y="420" width="70" height="30" as="geometry" />
        </mxCell>
        <mxCell id="8UbPj4sn8m6KC2orrcHc-35" value="Création de l&#39;offre de location" style="text;html=1;align=center;verticalAlign=middle;whiteSpace=wrap;rounded=0;" vertex="1" parent="1">
          <mxGeometry x="230" y="595" width="100" height="30" as="geometry" />
        </mxCell>
        <mxCell id="8UbPj4sn8m6KC2orrcHc-36" value="Recherche de l&#39;offre avec filtres" style="text;html=1;align=center;verticalAlign=middle;whiteSpace=wrap;rounded=0;" vertex="1" parent="1">
          <mxGeometry x="230" y="430" width="60" height="30" as="geometry" />
        </mxCell>
        <mxCell id="8UbPj4sn8m6KC2orrcHc-37" value="Inscription" style="text;html=1;align=center;verticalAlign=middle;whiteSpace=wrap;rounded=0;" vertex="1" parent="1">
          <mxGeometry x="135" y="510" width="60" height="30" as="geometry" />
        </mxCell>
        <mxCell id="8UbPj4sn8m6KC2orrcHc-38" value="Messagerie Intégrée Twilio" style="text;html=1;align=center;verticalAlign=middle;whiteSpace=wrap;rounded=0;" vertex="1" parent="1">
          <mxGeometry x="395" y="500" width="60" height="30" as="geometry" />
        </mxCell>
        <mxCell id="8UbPj4sn8m6KC2orrcHc-40" value="Régler dispute" style="text;html=1;align=center;verticalAlign=middle;whiteSpace=wrap;rounded=0;" vertex="1" parent="1">
          <mxGeometry x="480" y="430" width="60" height="30" as="geometry" />
        </mxCell>
        <mxCell id="8UbPj4sn8m6KC2orrcHc-41" value="Régler dispute" style="text;html=1;align=center;verticalAlign=middle;whiteSpace=wrap;rounded=0;" vertex="1" parent="1">
          <mxGeometry x="480" y="550" width="60" height="30" as="geometry" />
        </mxCell>
        <mxCell id="8UbPj4sn8m6KC2orrcHc-42" value="Gestion de profil" style="text;html=1;align=center;verticalAlign=middle;whiteSpace=wrap;rounded=0;" vertex="1" parent="1">
          <mxGeometry x="230" y="495" width="60" height="30" as="geometry" />
        </mxCell>
        <mxCell id="8UbPj4sn8m6KC2orrcHc-43" value="Réservation" style="text;html=1;align=center;verticalAlign=middle;whiteSpace=wrap;rounded=0;" vertex="1" parent="1">
          <mxGeometry x="240" y="280" width="60" height="30" as="geometry" />
        </mxCell>
        <mxCell id="8UbPj4sn8m6KC2orrcHc-44" value="Gestion des paiements" style="text;html=1;align=center;verticalAlign=middle;whiteSpace=wrap;rounded=0;" vertex="1" parent="1">
          <mxGeometry x="390" y="290" width="70" height="30" as="geometry" />
        </mxCell>
      </root>
    </mxGraphModel>
  </diagram>
</mxfile>
